<svg width="342" height="308" viewBox="0 0 342 308" fill="none" xmlns="http://www.w3.org/2000/svg">
<g filter="url(#filter0_bd_108_1488)">
<mask id="path-1-outside-1_108_1488" maskUnits="userSpaceOnUse" x="171" y="59" width="156" height="95" fill="black">
<rect fill="white" x="171" y="59" width="156" height="95"/>
<path fill-rule="evenodd" clip-rule="evenodd" d="M282.694 102.733C282.694 104.19 282.619 105.63 282.473 107.048C286.982 103.14 292.871 100.775 299.314 100.775C313.5 100.775 325 112.242 325 126.387C325 140.533 313.5 152 299.314 152H199.462C199.455 152 199.448 152 199.441 152C199.435 152 199.428 152 199.421 152H199.29V152C184.757 151.918 173 140.145 173 125.634C173 111.176 184.67 99.4363 199.13 99.27C200.896 77.8416 218.896 61 240.841 61C263.956 61 282.694 79.6847 282.694 102.733Z"/>
</mask>
<path fill-rule="evenodd" clip-rule="evenodd" d="M282.694 102.733C282.694 104.19 282.619 105.63 282.473 107.048C286.982 103.14 292.871 100.775 299.314 100.775C313.5 100.775 325 112.242 325 126.387C325 140.533 313.5 152 299.314 152H199.462C199.455 152 199.448 152 199.441 152C199.435 152 199.428 152 199.421 152H199.29V152C184.757 151.918 173 140.145 173 125.634C173 111.176 184.67 99.4363 199.13 99.27C200.896 77.8416 218.896 61 240.841 61C263.956 61 282.694 79.6847 282.694 102.733Z" fill="url(#paint0_linear_108_1488)" shape-rendering="crispEdges"/>
<path d="M282.473 107.048L280.483 106.843L279.966 111.867L283.783 108.559L282.473 107.048ZM199.29 152H197.29V154H199.29V152ZM199.29 152H201.29V150.011L199.301 150L199.29 152ZM199.13 99.27L199.153 101.27L200.974 101.249L201.123 99.4342L199.13 99.27ZM284.462 107.253C284.615 105.767 284.694 104.259 284.694 102.733H280.694C280.694 104.122 280.623 105.493 280.483 106.843L284.462 107.253ZM299.314 98.7748C292.372 98.7748 286.022 101.325 281.163 105.537L283.783 108.559C287.942 104.955 293.37 102.775 299.314 102.775V98.7748ZM327 126.387C327 111.132 314.599 98.7748 299.314 98.7748V102.775C312.401 102.775 323 113.352 323 126.387H327ZM299.314 154C314.599 154 327 141.643 327 126.387H323C323 139.423 312.401 150 299.314 150V154ZM299.314 150H199.462V154H299.314V150ZM199.441 154C199.445 154 199.449 154 199.453 154C199.456 154 199.459 154 199.462 154V150C199.458 150 199.454 150 199.45 150C199.447 150 199.444 150 199.441 150V154ZM199.421 154C199.424 154 199.427 154 199.43 154C199.433 154 199.437 154 199.441 154V150C199.439 150 199.436 150 199.432 150C199.429 150 199.425 150 199.421 150V154ZM199.421 150H199.29V154H199.421V150ZM201.29 152V152H197.29V152H201.29ZM171 125.634C171 141.252 183.651 153.912 199.279 154L199.301 150C185.862 149.925 175 139.039 175 125.634H171ZM199.107 97.2701C183.558 97.449 171 110.074 171 125.634H175C175 112.278 185.782 101.424 199.153 101.27L199.107 97.2701ZM240.841 59C217.851 59 198.987 76.6439 197.137 99.1058L201.123 99.4342C202.804 79.0394 219.941 63 240.841 63V59ZM284.694 102.733C284.694 78.5747 265.055 59 240.841 59V63C262.856 63 280.694 80.7947 280.694 102.733H284.694Z" fill="url(#paint1_linear_108_1488)" mask="url(#path-1-outside-1_108_1488)"/>
</g>
<g filter="url(#filter1_bd_108_1488)">
<mask id="path-3-outside-2_108_1488" maskUnits="userSpaceOnUse" x="15" y="95" width="255" height="155" fill="black">
<rect fill="white" x="15" y="95" width="255" height="155"/>
<path fill-rule="evenodd" clip-rule="evenodd" d="M197.882 166.014C197.882 168.423 197.758 170.804 197.517 173.149C204.953 166.687 214.664 162.775 225.288 162.775C248.68 162.775 267.643 181.738 267.643 205.13C267.643 228.523 248.68 247.486 225.288 247.486H60.6379C60.6256 247.486 60.6133 247.486 60.601 247.486C60.5887 247.486 60.5764 247.486 60.5641 247.486H60.3518V247.485C36.3863 247.351 17 227.882 17 203.885C17 179.976 36.2441 160.562 60.0878 160.287C62.999 124.851 92.6809 97 128.868 97C166.983 97 197.882 127.899 197.882 166.014Z"/>
</mask>
<path fill-rule="evenodd" clip-rule="evenodd" d="M197.882 166.014C197.882 168.423 197.758 170.804 197.517 173.149C204.953 166.687 214.664 162.775 225.288 162.775C248.68 162.775 267.643 181.738 267.643 205.13C267.643 228.523 248.68 247.486 225.288 247.486H60.6379C60.6256 247.486 60.6133 247.486 60.601 247.486C60.5887 247.486 60.5764 247.486 60.5641 247.486H60.3518V247.485C36.3863 247.351 17 227.882 17 203.885C17 179.976 36.2441 160.562 60.0878 160.287C62.999 124.851 92.6809 97 128.868 97C166.983 97 197.882 127.899 197.882 166.014Z" fill="url(#paint2_linear_108_1488)" shape-rendering="crispEdges"/>
<path d="M197.517 173.149L195.528 172.945L195.011 177.977L198.829 174.659L197.517 173.149ZM60.3518 247.486H58.3518V249.486H60.3518V247.486ZM60.3518 247.485H62.3518V245.496L60.363 245.485L60.3518 247.485ZM60.0878 160.287L60.1109 162.287L61.932 162.266L62.0811 160.45L60.0878 160.287ZM199.507 173.353C199.755 170.94 199.882 168.492 199.882 166.014H195.882C195.882 168.355 195.762 170.667 195.528 172.945L199.507 173.353ZM225.288 160.775C214.163 160.775 203.991 164.873 196.206 171.639L198.829 174.659C205.915 168.501 215.164 164.775 225.288 164.775V160.775ZM269.643 205.13C269.643 180.634 249.785 160.775 225.288 160.775V164.775C247.576 164.775 265.643 182.843 265.643 205.13H269.643ZM225.288 249.486C249.785 249.486 269.643 229.627 269.643 205.13H265.643C265.643 227.418 247.576 245.486 225.288 245.486V249.486ZM225.288 245.486H60.6379V249.486H225.288V245.486ZM60.601 249.486C60.6079 249.486 60.6146 249.486 60.6207 249.486C60.6269 249.486 60.6324 249.486 60.6379 249.486V245.486C60.631 245.486 60.6242 245.486 60.6182 245.486C60.6119 245.486 60.6064 245.486 60.601 245.486V249.486ZM60.5641 249.486C60.5695 249.486 60.5751 249.486 60.5813 249.486C60.5873 249.486 60.5941 249.486 60.601 249.486V245.486C60.5956 245.486 60.59 245.486 60.5838 245.486C60.5778 245.486 60.571 245.486 60.5641 245.486V249.486ZM60.5641 245.486H60.3518V249.486H60.5641V245.486ZM62.3518 247.486V247.485H58.3518V247.486H62.3518ZM15 203.885C15 228.983 35.2756 249.345 60.3407 249.485L60.363 245.485C37.4971 245.357 19 226.781 19 203.885H15ZM60.0647 158.287C35.1268 158.574 15 178.879 15 203.885H19C19 181.073 37.3614 162.549 60.1109 162.287L60.0647 158.287ZM128.868 95C91.6312 95 61.0902 123.658 58.0945 160.123L62.0811 160.45C64.9077 126.044 93.7306 99 128.868 99V95ZM199.882 166.014C199.882 126.794 168.088 95 128.868 95V99C165.879 99 195.882 129.003 195.882 166.014H199.882Z" fill="url(#paint3_linear_108_1488)" mask="url(#path-3-outside-2_108_1488)"/>
</g>
<defs>
<filter id="filter0_bd_108_1488" x="156" y="48" width="186" height="125" filterUnits="userSpaceOnUse" color-interpolation-filters="sRGB">
<feFlood flood-opacity="0" result="BackgroundImageFix"/>
<feGaussianBlur in="BackgroundImage" stdDeviation="5"/>
<feComposite in2="SourceAlpha" operator="in" result="effect1_backgroundBlur_108_1488"/>
<feColorMatrix in="SourceAlpha" type="matrix" values="0 0 0 0 0 0 0 0 0 0 0 0 0 0 0 0 0 0 127 0" result="hardAlpha"/>
<feOffset dy="4"/>
<feGaussianBlur stdDeviation="7.5"/>
<feComposite in2="hardAlpha" operator="out"/>
<feColorMatrix type="matrix" values="0 0 0 0 0 0 0 0 0 0 0 0 0 0 0 0 0 0 0.1 0"/>
<feBlend mode="normal" in2="effect1_backgroundBlur_108_1488" result="effect2_dropShadow_108_1488"/>
<feBlend mode="normal" in="SourceGraphic" in2="effect2_dropShadow_108_1488" result="shape"/>
</filter>
<filter id="filter1_bd_108_1488" x="0" y="84" width="284.643" height="184.486" filterUnits="userSpaceOnUse" color-interpolation-filters="sRGB">
<feFlood flood-opacity="0" result="BackgroundImageFix"/>
<feGaussianBlur in="BackgroundImage" stdDeviation="5"/>
<feComposite in2="SourceAlpha" operator="in" result="effect1_backgroundBlur_108_1488"/>
<feColorMatrix in="SourceAlpha" type="matrix" values="0 0 0 0 0 0 0 0 0 0 0 0 0 0 0 0 0 0 127 0" result="hardAlpha"/>
<feOffset dy="4"/>
<feGaussianBlur stdDeviation="7.5"/>
<feComposite in2="hardAlpha" operator="out"/>
<feColorMatrix type="matrix" values="0 0 0 0 0 0 0 0 0 0 0 0 0 0 0 0 0 0 0.1 0"/>
<feBlend mode="normal" in2="effect1_backgroundBlur_108_1488" result="effect2_dropShadow_108_1488"/>
<feBlend mode="normal" in="SourceGraphic" in2="effect2_dropShadow_108_1488" result="shape"/>
</filter>
<linearGradient id="paint0_linear_108_1488" x1="220.243" y1="60.6205" x2="256.625" y2="152.451" gradientUnits="userSpaceOnUse">
<stop stop-color="white"/>
<stop offset="0.708333" stop-color="#9DDCFF" stop-opacity="0.69"/>
</linearGradient>
<linearGradient id="paint1_linear_108_1488" x1="244.07" y1="29.488" x2="294.338" y2="189.329" gradientUnits="userSpaceOnUse">
<stop stop-color="white"/>
<stop offset="0.713542" stop-color="#85C6EC" stop-opacity="0.71"/>
</linearGradient>
<linearGradient id="paint2_linear_108_1488" x1="94.9027" y1="96.3724" x2="155.193" y2="248.113" gradientUnits="userSpaceOnUse">
<stop stop-color="white"/>
<stop offset="0.708333" stop-color="#9DDCFF" stop-opacity="0.69"/>
</linearGradient>
<linearGradient id="paint3_linear_108_1488" x1="134.193" y1="44.8889" x2="217.515" y2="309.081" gradientUnits="userSpaceOnUse">
<stop stop-color="white"/>
<stop offset="0.713542" stop-color="#85C6EC" stop-opacity="0.71"/>
</linearGradient>
</defs>
</svg>
