<svg width="308" height="308" viewBox="0 0 308 308" fill="none" xmlns="http://www.w3.org/2000/svg">
<path d="M154 228.043C194.893 228.043 228.043 194.893 228.043 154C228.043 113.107 194.893 79.9565 154 79.9565C113.107 79.9565 79.9563 113.107 79.9563 154C79.9563 194.893 113.107 228.043 154 228.043Z" fill="url(#paint0_linear_108_1472)" stroke="url(#paint1_linear_108_1472)" stroke-width="2"/>
<path fill-rule="evenodd" clip-rule="evenodd" d="M154 34C150.398 34 147.478 36.9199 147.478 40.5217V61.3913C147.478 64.9932 150.398 67.913 154 67.913C157.602 67.913 160.522 64.9932 160.522 61.3913V40.5217C160.522 36.9199 157.602 34 154 34ZM154 240.087C150.398 240.087 147.478 243.007 147.478 246.609V267.478C147.478 271.08 150.398 274 154 274C157.602 274 160.522 271.08 160.522 267.478V246.609C160.522 243.007 157.602 240.087 154 240.087ZM205.091 52.464C206.892 49.3447 210.881 48.276 214 50.0769C217.119 51.8778 218.188 55.8665 216.387 58.9858L205.952 77.0593C204.151 80.1786 200.163 81.2474 197.043 79.4465C193.924 77.6455 192.855 73.6569 194.656 70.5376L205.091 52.464ZM110.956 228.553C107.837 226.753 103.849 227.821 102.048 230.941L91.6128 249.014C89.8119 252.133 90.8806 256.122 93.9999 257.923C97.1192 259.724 101.108 258.655 102.909 255.536L113.344 237.462C115.145 234.343 114.076 230.354 110.956 228.553ZM249.014 91.6128C252.133 89.8119 256.122 90.8807 257.923 94C259.724 97.1193 258.655 101.108 255.536 102.909L237.462 113.344C234.343 115.145 230.354 114.076 228.553 110.956C226.753 107.837 227.821 103.849 230.941 102.048L249.014 91.6128ZM79.4465 197.043C77.6456 193.924 73.6569 192.855 70.5376 194.656L52.4641 205.091C49.3448 206.892 48.276 210.881 50.0769 214C51.8779 217.119 55.8665 218.188 58.9858 216.387L77.0594 205.952C80.1787 204.151 81.2474 200.163 79.4465 197.043ZM267.478 147.478C271.08 147.478 274 150.398 274 154C274 157.602 271.08 160.522 267.478 160.522H246.609C243.007 160.522 240.087 157.602 240.087 154C240.087 150.398 243.007 147.478 246.609 147.478H267.478ZM67.913 154C67.913 150.398 64.9932 147.478 61.3913 147.478H40.5217C36.9199 147.478 34 150.398 34 154C34 157.602 36.9199 160.522 40.5217 160.522H61.3913C64.9932 160.522 67.913 157.602 67.913 154ZM255.536 205.091C258.655 206.892 259.724 210.881 257.923 214C256.122 217.119 252.133 218.188 249.014 216.387L230.941 205.952C227.821 204.151 226.753 200.163 228.553 197.043C230.354 193.924 234.343 192.855 237.462 194.656L255.536 205.091ZM79.4465 110.956C81.2474 107.837 80.1787 103.849 77.0594 102.048L58.9858 91.6128C55.8665 89.8119 51.8779 90.8806 50.0769 93.9999C48.276 97.1192 49.3448 101.108 52.4641 102.909L70.5376 113.344C73.6569 115.145 77.6456 114.076 79.4465 110.956ZM216.387 249.014C218.188 252.133 217.119 256.122 214 257.923C210.881 259.724 206.892 258.655 205.091 255.536L194.656 237.462C192.855 234.343 193.924 230.354 197.043 228.553C200.163 226.752 204.151 227.821 205.952 230.941L216.387 249.014ZM110.956 79.4464C114.076 77.6455 115.144 73.6568 113.344 70.5375L102.909 52.464C101.108 49.3447 97.1192 48.2759 93.9999 50.0769C90.8806 51.8778 89.8119 55.8664 91.6128 58.9857L102.048 77.0593C103.848 80.1786 107.837 81.2473 110.956 79.4464Z" fill="url(#paint2_linear_108_1472)"/>
<defs>
<linearGradient id="paint0_linear_108_1472" x1="195.087" y1="91.3913" x2="128.79" y2="227.614" gradientUnits="userSpaceOnUse">
<stop offset="0.182844" stop-color="#FFE600"/>
<stop offset="0.980542" stop-color="#F09000"/>
</linearGradient>
<linearGradient id="paint1_linear_108_1472" x1="116.689" y1="64.2521" x2="219.546" y2="311.311" gradientUnits="userSpaceOnUse">
<stop stop-color="#FFE600"/>
<stop offset="1" stop-color="#BD5B23"/>
</linearGradient>
<linearGradient id="paint2_linear_108_1472" x1="242.043" y1="65.3043" x2="63.9999" y2="274" gradientUnits="userSpaceOnUse">
<stop stop-color="#FFE600"/>
<stop offset="1" stop-color="#E7AA64"/>
</linearGradient>
</defs>
</svg>
