<svg width="317" height="308" viewBox="0 0 317 308" fill="none" xmlns="http://www.w3.org/2000/svg">
<circle cx="220" cy="139" r="55.7826" fill="url(#paint0_linear_108_1485)" stroke="url(#paint1_linear_108_1485)" stroke-width="2"/>
<path fill-rule="evenodd" clip-rule="evenodd" d="M220 49C217.299 49 215.109 51.1899 215.109 53.8913V69.5435C215.109 72.2449 217.299 74.4348 220 74.4348C222.701 74.4348 224.891 72.2449 224.891 69.5435V53.8913C224.891 51.1899 222.701 49 220 49ZM220 203.565C217.299 203.565 215.109 205.755 215.109 208.457V224.109C215.109 226.81 217.299 229 220 229C222.701 229 224.891 226.81 224.891 224.109V208.457C224.891 205.755 222.701 203.565 220 203.565ZM258.318 62.848C259.669 60.5086 262.66 59.707 265 61.0577C267.339 62.4084 268.141 65.3999 266.79 67.7393L258.964 81.2945C257.614 83.634 254.622 84.4355 252.283 83.0848C249.943 81.7341 249.142 78.7427 250.492 76.4032L258.318 62.848ZM187.717 194.915C185.378 193.564 182.386 194.366 181.036 196.705L173.21 210.261C171.859 212.6 172.66 215.592 175 216.942C177.339 218.293 180.331 217.491 181.682 215.152L189.508 201.597C190.858 199.257 190.057 196.266 187.717 194.915ZM291.261 92.2096C293.6 90.8589 296.592 91.6605 297.942 94C299.293 96.3394 298.491 99.3309 296.152 100.682L282.597 108.508C280.257 109.858 277.266 109.057 275.915 106.717C274.564 104.378 275.366 101.386 277.705 100.036L291.261 92.2096ZM164.085 171.283C162.734 168.943 159.743 168.142 157.403 169.492L143.848 177.318C141.509 178.669 140.707 181.66 142.058 184C143.408 186.339 146.4 187.141 148.739 185.79L162.295 177.964C164.634 176.614 165.436 173.622 164.085 171.283ZM305.109 134.109C307.81 134.109 310 136.299 310 139C310 141.701 307.81 143.891 305.109 143.891H289.457C286.755 143.891 284.565 141.701 284.565 139C284.565 136.299 286.755 134.109 289.457 134.109H305.109ZM155.435 139C155.435 136.299 153.245 134.109 150.543 134.109H134.891C132.19 134.109 130 136.299 130 139C130 141.701 132.19 143.891 134.891 143.891H150.543C153.245 143.891 155.435 141.701 155.435 139ZM296.152 177.318C298.491 178.669 299.293 181.66 297.942 184C296.592 186.339 293.6 187.141 291.261 185.79L277.705 177.964C275.366 176.614 274.564 173.622 275.915 171.283C277.266 168.943 280.257 168.142 282.597 169.492L296.152 177.318ZM164.085 106.717C165.436 104.378 164.634 101.386 162.295 100.036L148.739 92.2096C146.4 90.8589 143.408 91.6605 142.058 94C140.707 96.3394 141.509 99.3309 143.848 100.682L157.403 108.508C159.743 109.858 162.734 109.057 164.085 106.717ZM266.79 210.261C268.141 212.6 267.339 215.592 265 216.942C262.66 218.293 259.669 217.491 258.318 215.152L250.492 201.597C249.142 199.257 249.943 196.266 252.283 194.915C254.622 193.564 257.614 194.366 258.964 196.705L266.79 210.261ZM187.717 83.0848C190.057 81.7341 190.858 78.7426 189.508 76.4032L181.682 62.848C180.331 60.5085 177.339 59.7069 175 61.0576C172.66 62.4083 171.859 65.3998 173.21 67.7393L181.036 81.2945C182.386 83.6339 185.378 84.4355 187.717 83.0848Z" fill="url(#paint2_linear_108_1485)"/>
<g filter="url(#filter0_bd_108_1485)">
<mask id="path-3-outside-1_108_1485" maskUnits="userSpaceOnUse" x="15" y="107" width="255" height="155" fill="black">
<rect fill="white" x="15" y="107" width="255" height="155"/>
<path fill-rule="evenodd" clip-rule="evenodd" d="M197.882 178.014C197.882 180.423 197.758 182.804 197.517 185.149C204.953 178.687 214.664 174.775 225.288 174.775C248.68 174.775 267.643 193.738 267.643 217.13C267.643 240.523 248.68 259.486 225.288 259.486H60.6379C60.6256 259.486 60.6133 259.486 60.601 259.486C60.5887 259.486 60.5764 259.486 60.5641 259.486H60.3518V259.485C36.3863 259.351 17 239.882 17 215.885C17 191.976 36.2441 172.562 60.0878 172.287C62.999 136.851 92.6809 109 128.868 109C166.983 109 197.882 139.899 197.882 178.014Z"/>
</mask>
<path fill-rule="evenodd" clip-rule="evenodd" d="M197.882 178.014C197.882 180.423 197.758 182.804 197.517 185.149C204.953 178.687 214.664 174.775 225.288 174.775C248.68 174.775 267.643 193.738 267.643 217.13C267.643 240.523 248.68 259.486 225.288 259.486H60.6379C60.6256 259.486 60.6133 259.486 60.601 259.486C60.5887 259.486 60.5764 259.486 60.5641 259.486H60.3518V259.485C36.3863 259.351 17 239.882 17 215.885C17 191.976 36.2441 172.562 60.0878 172.287C62.999 136.851 92.6809 109 128.868 109C166.983 109 197.882 139.899 197.882 178.014Z" fill="url(#paint3_linear_108_1485)" shape-rendering="crispEdges"/>
<path d="M197.517 185.149L195.528 184.945L195.011 189.977L198.829 186.659L197.517 185.149ZM60.3518 259.486H58.3518V261.486H60.3518V259.486ZM60.3518 259.485H62.3518V257.496L60.363 257.485L60.3518 259.485ZM60.0878 172.287L60.1109 174.287L61.932 174.266L62.0811 172.45L60.0878 172.287ZM199.507 185.353C199.755 182.94 199.882 180.492 199.882 178.014H195.882C195.882 180.355 195.762 182.667 195.528 184.945L199.507 185.353ZM225.288 172.775C214.163 172.775 203.991 176.873 196.206 183.639L198.829 186.659C205.915 180.501 215.164 176.775 225.288 176.775V172.775ZM269.643 217.13C269.643 192.634 249.785 172.775 225.288 172.775V176.775C247.576 176.775 265.643 194.843 265.643 217.13H269.643ZM225.288 261.486C249.785 261.486 269.643 241.627 269.643 217.13H265.643C265.643 239.418 247.576 257.486 225.288 257.486V261.486ZM225.288 257.486H60.6379V261.486H225.288V257.486ZM60.601 261.486C60.6079 261.486 60.6146 261.486 60.6207 261.486C60.6269 261.486 60.6324 261.486 60.6379 261.486V257.486C60.631 257.486 60.6242 257.486 60.6182 257.486C60.6119 257.486 60.6064 257.486 60.601 257.486V261.486ZM60.5641 261.486C60.5695 261.486 60.5751 261.486 60.5813 261.486C60.5873 261.486 60.5941 261.486 60.601 261.486V257.486C60.5956 257.486 60.59 257.486 60.5838 257.486C60.5778 257.486 60.571 257.486 60.5641 257.486V261.486ZM60.5641 257.486H60.3518V261.486H60.5641V257.486ZM62.3518 259.486V259.485H58.3518V259.486H62.3518ZM15 215.885C15 240.983 35.2756 261.345 60.3407 261.485L60.363 257.485C37.4971 257.357 19 238.781 19 215.885H15ZM60.0647 170.287C35.1268 170.574 15 190.879 15 215.885H19C19 193.073 37.3614 174.549 60.1109 174.287L60.0647 170.287ZM128.868 107C91.6312 107 61.0902 135.658 58.0945 172.123L62.0811 172.45C64.9077 138.044 93.7306 111 128.868 111V107ZM199.882 178.014C199.882 138.794 168.088 107 128.868 107V111C165.879 111 195.882 141.003 195.882 178.014H199.882Z" fill="url(#paint4_linear_108_1485)" mask="url(#path-3-outside-1_108_1485)"/>
</g>
<defs>
<filter id="filter0_bd_108_1485" x="0" y="96" width="284.643" height="184.486" filterUnits="userSpaceOnUse" color-interpolation-filters="sRGB">
<feFlood flood-opacity="0" result="BackgroundImageFix"/>
<feGaussianBlur in="BackgroundImage" stdDeviation="5"/>
<feComposite in2="SourceAlpha" operator="in" result="effect1_backgroundBlur_108_1485"/>
<feColorMatrix in="SourceAlpha" type="matrix" values="0 0 0 0 0 0 0 0 0 0 0 0 0 0 0 0 0 0 127 0" result="hardAlpha"/>
<feOffset dy="4"/>
<feGaussianBlur stdDeviation="7.5"/>
<feComposite in2="hardAlpha" operator="out"/>
<feColorMatrix type="matrix" values="0 0 0 0 0 0 0 0 0 0 0 0 0 0 0 0 0 0 0.1 0"/>
<feBlend mode="normal" in2="effect1_backgroundBlur_108_1485" result="effect2_dropShadow_108_1485"/>
<feBlend mode="normal" in="SourceGraphic" in2="effect2_dropShadow_108_1485" result="shape"/>
</filter>
<linearGradient id="paint0_linear_108_1485" x1="250.815" y1="92.0434" x2="201.093" y2="194.21" gradientUnits="userSpaceOnUse">
<stop offset="0.182844" stop-color="#FFE600"/>
<stop offset="0.980542" stop-color="#F09000"/>
</linearGradient>
<linearGradient id="paint1_linear_108_1485" x1="192.017" y1="71.689" x2="269.16" y2="256.983" gradientUnits="userSpaceOnUse">
<stop stop-color="#FFE600"/>
<stop offset="1" stop-color="#E7AA64"/>
</linearGradient>
<linearGradient id="paint2_linear_108_1485" x1="286.032" y1="72.4782" x2="152.5" y2="229" gradientUnits="userSpaceOnUse">
<stop stop-color="#FFE600"/>
<stop offset="1" stop-color="#E7AA64"/>
</linearGradient>
<linearGradient id="paint3_linear_108_1485" x1="94.9027" y1="108.372" x2="155.193" y2="260.113" gradientUnits="userSpaceOnUse">
<stop stop-color="white"/>
<stop offset="0.708333" stop-color="#9DDCFF" stop-opacity="0.69"/>
</linearGradient>
<linearGradient id="paint4_linear_108_1485" x1="134.193" y1="56.8889" x2="217.515" y2="321.081" gradientUnits="userSpaceOnUse">
<stop stop-color="white"/>
<stop offset="0.713542" stop-color="#85C6EC" stop-opacity="0.71"/>
</linearGradient>
</defs>
</svg>
