<svg width="325" height="308" viewBox="0 0 325 308" fill="none" xmlns="http://www.w3.org/2000/svg">
<path fill-rule="evenodd" clip-rule="evenodd" d="M325 236.5C325 232.91 322.09 230 318.5 230L216.5 230C212.91 230 210 232.91 210 236.5C210 240.09 212.91 243 216.5 243L318.5 243C322.09 243 325 240.09 325 236.5ZM202 236.5C202 232.91 199.09 230 195.5 230H141C137.41 230 134.5 232.91 134.5 236.5C134.5 240.09 137.41 243 141 243H195.5C199.09 243 202 240.09 202 236.5Z" fill="url(#paint0_linear_108_1600)"/>
<path fill-rule="evenodd" clip-rule="evenodd" d="M325 236.5C325 232.91 322.09 230 318.5 230L216.5 230C212.91 230 210 232.91 210 236.5C210 240.09 212.91 243 216.5 243L318.5 243C322.09 243 325 240.09 325 236.5ZM202 236.5C202 232.91 199.09 230 195.5 230H141C137.41 230 134.5 232.91 134.5 236.5C134.5 240.09 137.41 243 141 243H195.5C199.09 243 202 240.09 202 236.5Z" fill="url(#paint1_linear_108_1600)"/>
<path fill-rule="evenodd" clip-rule="evenodd" d="M296 170.5C296 166.91 293.09 164 289.5 164L187.5 164C183.91 164 181 166.91 181 170.5C181 174.09 183.91 177 187.5 177L289.5 177C293.09 177 296 174.09 296 170.5ZM173 170.5C173 166.91 170.09 164 166.5 164H138.5C134.91 164 132 166.91 132 170.5C132 174.09 134.91 177 138.5 177H166.5C170.09 177 173 174.09 173 170.5Z" fill="url(#paint2_linear_108_1600)"/>
<path fill-rule="evenodd" clip-rule="evenodd" d="M296 170.5C296 166.91 293.09 164 289.5 164L187.5 164C183.91 164 181 166.91 181 170.5C181 174.09 183.91 177 187.5 177L289.5 177C293.09 177 296 174.09 296 170.5ZM173 170.5C173 166.91 170.09 164 166.5 164H138.5C134.91 164 132 166.91 132 170.5C132 174.09 134.91 177 138.5 177H166.5C170.09 177 173 174.09 173 170.5Z" fill="url(#paint3_linear_108_1600)"/>
<path fill-rule="evenodd" clip-rule="evenodd" d="M85 203.5C85 199.91 87.9101 197 91.5 197L219.5 197C223.09 197 226 199.91 226 203.5C226 207.09 223.09 210 219.5 210L91.5 210C87.9101 210 85 207.09 85 203.5ZM234 203.5C234 199.91 236.91 197 240.5 197H268.5C272.09 197 275 199.91 275 203.5C275 207.09 272.09 210 268.5 210H240.5C236.91 210 234 207.09 234 203.5Z" fill="url(#paint4_linear_108_1600)"/>
<path fill-rule="evenodd" clip-rule="evenodd" d="M85 203.5C85 199.91 87.9101 197 91.5 197L219.5 197C223.09 197 226 199.91 226 203.5C226 207.09 223.09 210 219.5 210L91.5 210C87.9101 210 85 207.09 85 203.5ZM234 203.5C234 199.91 236.91 197 240.5 197H268.5C272.09 197 275 199.91 275 203.5C275 207.09 272.09 210 268.5 210H240.5C236.91 210 234 207.09 234 203.5Z" fill="url(#paint5_linear_108_1600)"/>
<path fill-rule="evenodd" clip-rule="evenodd" d="M123.5 269.5C123.5 265.91 126.41 263 130 263L235.5 263C239.09 263 242 265.91 242 269.5C242 273.09 239.09 276 235.5 276L130 276C126.41 276 123.5 273.09 123.5 269.5ZM250 269.5C250 265.91 252.91 263 256.5 263H284.5C288.09 263 291 265.91 291 269.5C291 273.09 288.09 276 284.5 276H256.5C252.91 276 250 273.09 250 269.5Z" fill="url(#paint6_linear_108_1600)"/>
<path fill-rule="evenodd" clip-rule="evenodd" d="M123.5 269.5C123.5 265.91 126.41 263 130 263L235.5 263C239.09 263 242 265.91 242 269.5C242 273.09 239.09 276 235.5 276L130 276C126.41 276 123.5 273.09 123.5 269.5ZM250 269.5C250 265.91 252.91 263 256.5 263H284.5C288.09 263 291 265.91 291 269.5C291 273.09 288.09 276 284.5 276H256.5C252.91 276 250 273.09 250 269.5Z" fill="url(#paint7_linear_108_1600)"/>
<g filter="url(#filter0_bd_108_1600)">
<mask id="path-5-outside-1_108_1600" maskUnits="userSpaceOnUse" x="15" y="30" width="255" height="155" fill="black">
<rect fill="white" x="15" y="30" width="255" height="155"/>
<path fill-rule="evenodd" clip-rule="evenodd" d="M197.882 101.014C197.882 103.423 197.758 105.804 197.517 108.149C204.953 101.687 214.664 97.7752 225.288 97.7752C248.68 97.7752 267.643 116.738 267.643 140.13C267.643 163.523 248.68 182.486 225.288 182.486H60.6379C60.6256 182.486 60.6133 182.486 60.601 182.486C60.5887 182.486 60.5764 182.486 60.5641 182.486H60.3518V182.485C36.3863 182.351 17 162.882 17 138.885C17 114.976 36.2441 95.5617 60.0878 95.2867C62.999 59.8508 92.6809 32 128.868 32C166.983 32 197.882 62.8987 197.882 101.014Z"/>
</mask>
<path fill-rule="evenodd" clip-rule="evenodd" d="M197.882 101.014C197.882 103.423 197.758 105.804 197.517 108.149C204.953 101.687 214.664 97.7752 225.288 97.7752C248.68 97.7752 267.643 116.738 267.643 140.13C267.643 163.523 248.68 182.486 225.288 182.486H60.6379C60.6256 182.486 60.6133 182.486 60.601 182.486C60.5887 182.486 60.5764 182.486 60.5641 182.486H60.3518V182.485C36.3863 182.351 17 162.882 17 138.885C17 114.976 36.2441 95.5617 60.0878 95.2867C62.999 59.8508 92.6809 32 128.868 32C166.983 32 197.882 62.8987 197.882 101.014Z" fill="url(#paint8_linear_108_1600)" shape-rendering="crispEdges"/>
<path d="M197.517 108.149L195.528 107.945L195.011 112.977L198.829 109.659L197.517 108.149ZM60.3518 182.486H58.3518V184.486H60.3518V182.486ZM60.3518 182.485H62.3518V180.496L60.363 180.485L60.3518 182.485ZM60.0878 95.2867L60.1109 97.2866L61.932 97.2655L62.0811 95.4504L60.0878 95.2867ZM199.507 108.353C199.755 105.94 199.882 103.492 199.882 101.014H195.882C195.882 103.355 195.762 105.667 195.528 107.945L199.507 108.353ZM225.288 95.7752C214.163 95.7752 203.991 99.8733 196.206 106.639L198.829 109.659C205.915 103.501 215.164 99.7752 225.288 99.7752V95.7752ZM269.643 140.13C269.643 115.634 249.785 95.7752 225.288 95.7752V99.7752C247.576 99.7752 265.643 117.843 265.643 140.13H269.643ZM225.288 184.486C249.785 184.486 269.643 164.627 269.643 140.13H265.643C265.643 162.418 247.576 180.486 225.288 180.486V184.486ZM225.288 180.486H60.6379V184.486H225.288V180.486ZM60.601 184.486C60.6079 184.486 60.6146 184.486 60.6207 184.486C60.6269 184.486 60.6324 184.486 60.6379 184.486V180.486C60.631 180.486 60.6242 180.486 60.6182 180.486C60.6119 180.486 60.6064 180.486 60.601 180.486V184.486ZM60.5641 184.486C60.5695 184.486 60.5751 184.486 60.5813 184.486C60.5873 184.486 60.5941 184.486 60.601 184.486V180.486C60.5956 180.486 60.59 180.486 60.5838 180.486C60.5778 180.486 60.571 180.486 60.5641 180.486V184.486ZM60.5641 180.486H60.3518V184.486H60.5641V180.486ZM62.3518 182.486V182.485H58.3518V182.486H62.3518ZM15 138.885C15 163.983 35.2756 184.345 60.3407 184.485L60.363 180.485C37.4971 180.357 19 161.781 19 138.885H15ZM60.0647 93.2868C35.1268 93.5744 15 113.879 15 138.885H19C19 116.073 37.3614 97.5489 60.1109 97.2866L60.0647 93.2868ZM128.868 30C91.6312 30 61.0902 58.6581 58.0945 95.1229L62.0811 95.4504C64.9077 61.0436 93.7306 34 128.868 34V30ZM199.882 101.014C199.882 61.7941 168.088 30 128.868 30V34C165.879 34 195.882 64.0033 195.882 101.014H199.882Z" fill="url(#paint9_linear_108_1600)" mask="url(#path-5-outside-1_108_1600)"/>
</g>
<defs>
<filter id="filter0_bd_108_1600" x="0" y="19" width="284.643" height="184.485" filterUnits="userSpaceOnUse" color-interpolation-filters="sRGB">
<feFlood flood-opacity="0" result="BackgroundImageFix"/>
<feGaussianBlur in="BackgroundImage" stdDeviation="5"/>
<feComposite in2="SourceAlpha" operator="in" result="effect1_backgroundBlur_108_1600"/>
<feColorMatrix in="SourceAlpha" type="matrix" values="0 0 0 0 0 0 0 0 0 0 0 0 0 0 0 0 0 0 127 0" result="hardAlpha"/>
<feOffset dy="4"/>
<feGaussianBlur stdDeviation="7.5"/>
<feComposite in2="hardAlpha" operator="out"/>
<feColorMatrix type="matrix" values="0 0 0 0 0 0 0 0 0 0 0 0 0 0 0 0 0 0 0.1 0"/>
<feBlend mode="normal" in2="effect1_backgroundBlur_108_1600" result="effect2_dropShadow_108_1600"/>
<feBlend mode="normal" in="SourceGraphic" in2="effect2_dropShadow_108_1600" result="shape"/>
</filter>
<linearGradient id="paint0_linear_108_1600" x1="285.5" y1="225" x2="133.317" y2="233.551" gradientUnits="userSpaceOnUse">
<stop stop-color="#D6E9FF"/>
<stop offset="1" stop-color="#2898FF"/>
</linearGradient>
<linearGradient id="paint1_linear_108_1600" x1="285.5" y1="225" x2="133.317" y2="233.551" gradientUnits="userSpaceOnUse">
<stop stop-color="#D6E9FF"/>
<stop offset="1" stop-color="#2898FF"/>
</linearGradient>
<linearGradient id="paint2_linear_108_1600" x1="304" y1="151" x2="150.438" y2="193.559" gradientUnits="userSpaceOnUse">
<stop stop-color="#D6E9FF"/>
<stop offset="1" stop-color="#2898FF"/>
</linearGradient>
<linearGradient id="paint3_linear_108_1600" x1="304" y1="151" x2="150.438" y2="193.559" gradientUnits="userSpaceOnUse">
<stop stop-color="#D6E9FF"/>
<stop offset="1" stop-color="#2898FF"/>
</linearGradient>
<linearGradient id="paint4_linear_108_1600" x1="256.282" y1="135.365" x2="141.689" y2="271.317" gradientUnits="userSpaceOnUse">
<stop stop-color="#D6E9FF"/>
<stop offset="1" stop-color="#2898FF"/>
</linearGradient>
<linearGradient id="paint5_linear_108_1600" x1="256.282" y1="135.365" x2="141.689" y2="271.317" gradientUnits="userSpaceOnUse">
<stop stop-color="#D6E9FF"/>
<stop offset="1" stop-color="#2898FF"/>
</linearGradient>
<linearGradient id="paint6_linear_108_1600" x1="272.282" y1="201.365" x2="157.689" y2="337.317" gradientUnits="userSpaceOnUse">
<stop stop-color="#D6E9FF"/>
<stop offset="1" stop-color="#2898FF"/>
</linearGradient>
<linearGradient id="paint7_linear_108_1600" x1="272.282" y1="201.365" x2="157.689" y2="337.317" gradientUnits="userSpaceOnUse">
<stop stop-color="#D6E9FF"/>
<stop offset="1" stop-color="#2898FF"/>
</linearGradient>
<linearGradient id="paint8_linear_108_1600" x1="94.9027" y1="31.3724" x2="155.193" y2="183.113" gradientUnits="userSpaceOnUse">
<stop stop-color="white"/>
<stop offset="0.708333" stop-color="#9DDCFF" stop-opacity="0.69"/>
</linearGradient>
<linearGradient id="paint9_linear_108_1600" x1="134.193" y1="-20.1111" x2="217.515" y2="244.081" gradientUnits="userSpaceOnUse">
<stop stop-color="white"/>
<stop offset="0.713542" stop-color="#85C6EC" stop-opacity="0.71"/>
</linearGradient>
</defs>
</svg>
