<svg width="317" height="308" viewBox="0 0 317 308" fill="none" xmlns="http://www.w3.org/2000/svg">
<circle cx="220" cy="104" r="55.7826" fill="url(#paint0_linear_108_1526)" stroke="url(#paint1_linear_108_1526)" stroke-width="2"/>
<path fill-rule="evenodd" clip-rule="evenodd" d="M220 14C217.299 14 215.109 16.1899 215.109 18.8913V34.5435C215.109 37.2449 217.299 39.4348 220 39.4348C222.701 39.4348 224.891 37.2449 224.891 34.5435V18.8913C224.891 16.1899 222.701 14 220 14ZM220 168.565C217.298 168.565 215.109 170.755 215.109 173.457V189.109C215.109 191.81 217.298 194 220 194C222.701 194 224.891 191.81 224.891 189.109V173.457C224.891 170.755 222.701 168.565 220 168.565ZM258.318 27.848C259.669 25.5086 262.66 24.707 265 26.0577C267.339 27.4084 268.141 30.3999 266.79 32.7393L258.964 46.2945C257.613 48.634 254.622 49.4355 252.283 48.0848C249.943 46.7341 249.142 43.7427 250.492 41.4032L258.318 27.848ZM187.717 159.915C185.378 158.564 182.386 159.366 181.036 161.705L173.21 175.261C171.859 177.6 172.66 180.592 175 181.942C177.339 183.293 180.331 182.491 181.682 180.152L189.508 166.597C190.858 164.257 190.057 161.266 187.717 159.915ZM291.261 57.2096C293.6 55.8589 296.592 56.6605 297.942 59C299.293 61.3394 298.491 64.3309 296.152 65.6816L282.597 73.5077C280.257 74.8584 277.266 74.0568 275.915 71.7174C274.564 69.3779 275.366 66.3864 277.705 65.0357L291.261 57.2096ZM164.085 136.283C162.734 133.943 159.743 133.142 157.403 134.492L143.848 142.318C141.509 143.669 140.707 146.66 142.058 149C143.408 151.339 146.4 152.141 148.739 150.79L162.295 142.964C164.634 141.614 165.436 138.622 164.085 136.283ZM305.109 99.1087C307.81 99.1087 310 101.299 310 104C310 106.701 307.81 108.891 305.109 108.891H289.457C286.755 108.891 284.565 106.701 284.565 104C284.565 101.299 286.755 99.1087 289.457 99.1087H305.109ZM155.435 104C155.435 101.299 153.245 99.1087 150.543 99.1087H134.891C132.19 99.1087 130 101.299 130 104C130 106.701 132.19 108.891 134.891 108.891H150.543C153.245 108.891 155.435 106.701 155.435 104ZM296.152 142.318C298.491 143.669 299.293 146.66 297.942 149C296.592 151.339 293.6 152.141 291.261 150.79L277.705 142.964C275.366 141.614 274.564 138.622 275.915 136.283C277.266 133.943 280.257 133.142 282.597 134.492L296.152 142.318ZM164.085 71.7174C165.436 69.3779 164.634 66.3864 162.295 65.0357L148.739 57.2096C146.4 55.8589 143.408 56.6605 142.058 59C140.707 61.3394 141.509 64.3309 143.848 65.6816L157.403 73.5077C159.743 74.8584 162.734 74.0568 164.085 71.7174ZM266.79 175.261C268.141 177.6 267.339 180.592 265 181.942C262.66 183.293 259.669 182.491 258.318 180.152L250.492 166.597C249.142 164.257 249.943 161.266 252.283 159.915C254.622 158.564 257.614 159.366 258.964 161.705L266.79 175.261ZM187.717 48.0848C190.057 46.7341 190.858 43.7426 189.508 41.4032L181.682 27.848C180.331 25.5085 177.339 24.7069 175 26.0576C172.66 27.4083 171.859 30.3998 173.21 32.7393L181.036 46.2945C182.386 48.6339 185.378 49.4355 187.717 48.0848Z" fill="url(#paint2_linear_108_1526)"/>
<rect x="61.7664" y="255.774" width="12.1935" height="33.8707" rx="6.09673" transform="rotate(15 61.7664 255.774)" fill="url(#paint3_linear_108_1526)"/>
<rect x="101.278" y="255.774" width="12.1935" height="33.8707" rx="6.09673" transform="rotate(15 101.278 255.774)" fill="url(#paint4_linear_108_1526)"/>
<rect x="140.79" y="255.774" width="12.1935" height="33.8707" rx="6.09673" transform="rotate(15 140.79 255.774)" fill="url(#paint5_linear_108_1526)"/>
<rect x="180.302" y="255.774" width="12.1935" height="33.8707" rx="6.09673" transform="rotate(15 180.302 255.774)" fill="url(#paint6_linear_108_1526)"/>
<rect x="83.4436" y="207" width="12.1935" height="33.8707" rx="6.09673" transform="rotate(15 83.4436 207)" fill="url(#paint7_linear_108_1526)"/>
<rect x="122.956" y="207" width="12.1935" height="33.8707" rx="6.09673" transform="rotate(15 122.956 207)" fill="url(#paint8_linear_108_1526)"/>
<rect x="162.468" y="207" width="12.1935" height="33.8707" rx="6.09673" transform="rotate(15 162.468 207)" fill="url(#paint9_linear_108_1526)"/>
<rect x="201.979" y="207" width="12.1935" height="33.8707" rx="6.09673" transform="rotate(15 201.979 207)" fill="url(#paint10_linear_108_1526)"/>
<g filter="url(#filter0_bd_108_1526)">
<mask id="path-11-outside-1_108_1526" maskUnits="userSpaceOnUse" x="15" y="72" width="255" height="155" fill="black">
<rect fill="white" x="15" y="72" width="255" height="155"/>
<path fill-rule="evenodd" clip-rule="evenodd" d="M197.882 143.014C197.882 145.423 197.758 147.804 197.517 150.149C204.953 143.687 214.664 139.775 225.288 139.775C248.68 139.775 267.643 158.738 267.643 182.13C267.643 205.523 248.68 224.486 225.288 224.486H60.6379C60.6256 224.486 60.6133 224.486 60.601 224.486C60.5887 224.486 60.5764 224.486 60.5641 224.486H60.3518V224.485C36.3863 224.351 17 204.882 17 180.885C17 156.976 36.2441 137.562 60.0878 137.287C62.999 101.851 92.6809 74 128.868 74C166.983 74 197.882 104.899 197.882 143.014Z"/>
</mask>
<path fill-rule="evenodd" clip-rule="evenodd" d="M197.882 143.014C197.882 145.423 197.758 147.804 197.517 150.149C204.953 143.687 214.664 139.775 225.288 139.775C248.68 139.775 267.643 158.738 267.643 182.13C267.643 205.523 248.68 224.486 225.288 224.486H60.6379C60.6256 224.486 60.6133 224.486 60.601 224.486C60.5887 224.486 60.5764 224.486 60.5641 224.486H60.3518V224.485C36.3863 224.351 17 204.882 17 180.885C17 156.976 36.2441 137.562 60.0878 137.287C62.999 101.851 92.6809 74 128.868 74C166.983 74 197.882 104.899 197.882 143.014Z" fill="url(#paint11_linear_108_1526)" shape-rendering="crispEdges"/>
<path d="M197.517 150.149L195.528 149.945L195.011 154.977L198.829 151.659L197.517 150.149ZM60.3518 224.486H58.3518V226.486H60.3518V224.486ZM60.3518 224.485H62.3518V222.496L60.363 222.485L60.3518 224.485ZM60.0878 137.287L60.1109 139.287L61.932 139.266L62.0811 137.45L60.0878 137.287ZM199.507 150.353C199.755 147.94 199.882 145.492 199.882 143.014H195.882C195.882 145.355 195.762 147.667 195.528 149.945L199.507 150.353ZM225.288 137.775C214.163 137.775 203.991 141.873 196.206 148.639L198.829 151.659C205.915 145.501 215.164 141.775 225.288 141.775V137.775ZM269.643 182.13C269.643 157.634 249.785 137.775 225.288 137.775V141.775C247.576 141.775 265.643 159.843 265.643 182.13H269.643ZM225.288 226.486C249.785 226.486 269.643 206.627 269.643 182.13H265.643C265.643 204.418 247.576 222.486 225.288 222.486V226.486ZM225.288 222.486H60.6379V226.486H225.288V222.486ZM60.601 226.486C60.6079 226.486 60.6146 226.486 60.6207 226.486C60.6269 226.486 60.6324 226.486 60.6379 226.486V222.486C60.631 222.486 60.6242 222.486 60.6182 222.486C60.6119 222.486 60.6064 222.486 60.601 222.486V226.486ZM60.5641 226.486C60.5695 226.486 60.5751 226.486 60.5813 226.486C60.5873 226.486 60.5941 226.486 60.601 226.486V222.486C60.5956 222.486 60.59 222.486 60.5838 222.486C60.5778 222.486 60.571 222.486 60.5641 222.486V226.486ZM60.5641 222.486H60.3518V226.486H60.5641V222.486ZM62.3518 224.486V224.485H58.3518V224.486H62.3518ZM15 180.885C15 205.983 35.2756 226.345 60.3407 226.485L60.363 222.485C37.4971 222.357 19 203.781 19 180.885H15ZM60.0647 135.287C35.1268 135.574 15 155.879 15 180.885H19C19 158.073 37.3614 139.549 60.1109 139.287L60.0647 135.287ZM128.868 72C91.6312 72 61.0902 100.658 58.0945 137.123L62.0811 137.45C64.9077 103.044 93.7306 76 128.868 76V72ZM199.882 143.014C199.882 103.794 168.088 72 128.868 72V76C165.879 76 195.882 106.003 195.882 143.014H199.882Z" fill="url(#paint12_linear_108_1526)" mask="url(#path-11-outside-1_108_1526)"/>
</g>
<defs>
<filter id="filter0_bd_108_1526" x="0" y="61" width="284.643" height="184.486" filterUnits="userSpaceOnUse" color-interpolation-filters="sRGB">
<feFlood flood-opacity="0" result="BackgroundImageFix"/>
<feGaussianBlur in="BackgroundImage" stdDeviation="5"/>
<feComposite in2="SourceAlpha" operator="in" result="effect1_backgroundBlur_108_1526"/>
<feColorMatrix in="SourceAlpha" type="matrix" values="0 0 0 0 0 0 0 0 0 0 0 0 0 0 0 0 0 0 127 0" result="hardAlpha"/>
<feOffset dy="4"/>
<feGaussianBlur stdDeviation="7.5"/>
<feComposite in2="hardAlpha" operator="out"/>
<feColorMatrix type="matrix" values="0 0 0 0 0 0 0 0 0 0 0 0 0 0 0 0 0 0 0.1 0"/>
<feBlend mode="normal" in2="effect1_backgroundBlur_108_1526" result="effect2_dropShadow_108_1526"/>
<feBlend mode="normal" in="SourceGraphic" in2="effect2_dropShadow_108_1526" result="shape"/>
</filter>
<linearGradient id="paint0_linear_108_1526" x1="250.815" y1="57.0434" x2="201.093" y2="159.21" gradientUnits="userSpaceOnUse">
<stop offset="0.182844" stop-color="#FFE600"/>
<stop offset="0.980542" stop-color="#F09000"/>
</linearGradient>
<linearGradient id="paint1_linear_108_1526" x1="192.017" y1="36.689" x2="269.16" y2="221.983" gradientUnits="userSpaceOnUse">
<stop stop-color="#FFE600"/>
<stop offset="1" stop-color="#E7AA64"/>
</linearGradient>
<linearGradient id="paint2_linear_108_1526" x1="286.032" y1="37.4782" x2="152.5" y2="194" gradientUnits="userSpaceOnUse">
<stop stop-color="#FFE600"/>
<stop offset="1" stop-color="#E7AA64"/>
</linearGradient>
<linearGradient id="paint3_linear_108_1526" x1="63.1212" y1="285.58" x2="73.9598" y2="259.838" gradientUnits="userSpaceOnUse">
<stop stop-color="#3981EE"/>
<stop offset="1" stop-color="#92BDFF"/>
</linearGradient>
<linearGradient id="paint4_linear_108_1526" x1="102.633" y1="285.58" x2="113.472" y2="259.838" gradientUnits="userSpaceOnUse">
<stop stop-color="#3981EE"/>
<stop offset="1" stop-color="#92BDFF"/>
</linearGradient>
<linearGradient id="paint5_linear_108_1526" x1="142.145" y1="285.58" x2="152.984" y2="259.838" gradientUnits="userSpaceOnUse">
<stop stop-color="#3981EE"/>
<stop offset="1" stop-color="#92BDFF"/>
</linearGradient>
<linearGradient id="paint6_linear_108_1526" x1="181.657" y1="285.58" x2="192.496" y2="259.838" gradientUnits="userSpaceOnUse">
<stop stop-color="#3981EE"/>
<stop offset="1" stop-color="#92BDFF"/>
</linearGradient>
<linearGradient id="paint7_linear_108_1526" x1="84.7984" y1="236.806" x2="95.6371" y2="211.064" gradientUnits="userSpaceOnUse">
<stop stop-color="#3981EE"/>
<stop offset="1" stop-color="#92BDFF"/>
</linearGradient>
<linearGradient id="paint8_linear_108_1526" x1="124.311" y1="236.806" x2="135.149" y2="211.064" gradientUnits="userSpaceOnUse">
<stop stop-color="#3981EE"/>
<stop offset="1" stop-color="#92BDFF"/>
</linearGradient>
<linearGradient id="paint9_linear_108_1526" x1="163.822" y1="236.806" x2="174.661" y2="211.064" gradientUnits="userSpaceOnUse">
<stop stop-color="#3981EE"/>
<stop offset="1" stop-color="#92BDFF"/>
</linearGradient>
<linearGradient id="paint10_linear_108_1526" x1="203.334" y1="236.806" x2="214.173" y2="211.064" gradientUnits="userSpaceOnUse">
<stop stop-color="#3981EE"/>
<stop offset="1" stop-color="#92BDFF"/>
</linearGradient>
<linearGradient id="paint11_linear_108_1526" x1="94.9027" y1="73.3724" x2="155.193" y2="225.113" gradientUnits="userSpaceOnUse">
<stop stop-color="white"/>
<stop offset="0.708333" stop-color="#9DDCFF" stop-opacity="0.69"/>
</linearGradient>
<linearGradient id="paint12_linear_108_1526" x1="134.193" y1="21.8889" x2="217.515" y2="286.081" gradientUnits="userSpaceOnUse">
<stop stop-color="white"/>
<stop offset="0.713542" stop-color="#85C6EC" stop-opacity="0.71"/>
</linearGradient>
</defs>
</svg>
