<svg width="308" height="308" viewBox="0 0 308 308" fill="none" xmlns="http://www.w3.org/2000/svg">
<path fill-rule="evenodd" clip-rule="evenodd" d="M153.868 34C151.052 34 148.768 36.2833 148.768 39.1V55.0964L137.131 40.3984C135.382 38.1901 132.175 37.8174 129.966 39.5658C127.758 41.3142 127.385 44.5218 129.134 46.7301L148.768 71.5281V80.8962L137.131 66.1982C135.382 63.99 132.175 63.6172 129.966 65.3656C127.758 67.1141 127.385 70.3216 129.134 72.5299L148.768 97.3278V141.368L116.13 108.73L112.479 77.312C112.153 74.5142 109.622 72.5097 106.824 72.8348C104.026 73.16 102.022 75.6916 102.347 78.4895L104.511 97.1108L97.8862 90.4861L94.235 59.0686C93.9099 56.2707 91.3782 54.2662 88.5804 54.5914C85.7825 54.9165 83.778 57.4482 84.1032 60.246L86.2672 78.8672L76.4538 69.0538C74.4622 67.0621 71.233 67.0621 69.2414 69.0538C67.2497 71.0454 67.2497 74.2746 69.2414 76.2663L79.2911 86.316L60.2467 84.1028C57.4489 83.7777 54.9172 85.7822 54.5921 88.58C54.2669 91.3778 56.2714 93.9095 59.0692 94.2346L90.9101 97.935L97.5346 104.559L78.4903 102.346C75.6925 102.021 73.1608 104.026 72.8357 106.823C72.5105 109.621 74.515 112.153 77.3128 112.478L109.153 116.178L141.743 148.768H95.2109L70.4131 129.134C68.2049 127.385 64.9973 127.758 63.2489 129.966C61.5004 132.175 61.8732 135.382 64.0814 137.131L78.7793 148.768H69.4107L44.6129 129.134C42.4046 127.385 39.1971 127.758 37.4486 129.966C35.7002 132.175 36.073 135.382 38.2812 137.131L52.9791 148.768H39.1C36.2833 148.768 34 151.051 34 153.868C34 156.685 36.2833 158.968 39.1 158.968H53.3122L38.2812 170.869C36.073 172.618 35.7002 175.825 37.4486 178.033C39.1971 180.242 42.4046 180.614 44.6129 178.866L69.7439 158.968H79.1125L64.0814 170.869C61.8732 172.618 61.5004 175.825 63.2489 178.033C64.9973 180.242 68.2049 180.614 70.4131 178.866L95.5441 158.968H141.633L108.73 191.871L77.3116 195.522C74.5138 195.847 72.5093 198.379 72.8344 201.177C73.1596 203.974 75.6912 205.979 78.4891 205.654L97.111 203.49L90.4865 210.114L59.068 213.765C56.2702 214.091 54.2657 216.622 54.5908 219.42C54.916 222.218 57.4476 224.222 60.2455 223.897L78.8676 221.733L69.0535 231.547C67.0618 233.539 67.0618 236.768 69.0535 238.76C71.0452 240.751 74.2743 240.751 76.266 238.76L86.3158 228.71L84.1026 247.754C83.7774 250.552 85.7819 253.083 88.5797 253.409C91.3776 253.734 93.9092 251.729 94.2344 248.931L97.9347 217.091L104.559 210.466L102.346 229.511C102.021 232.308 104.026 234.84 106.823 235.165C109.621 235.49 112.153 233.486 112.478 230.688L116.178 198.847L148.768 166.257V212.789L129.134 237.587C127.385 239.795 127.758 243.003 129.966 244.751C132.175 246.5 135.382 246.127 137.131 243.919L148.768 229.221V238.589L129.134 263.387C127.385 265.595 127.758 268.803 129.966 270.551C132.175 272.299 135.382 271.927 137.131 269.718L148.768 255.021V268.9C148.768 271.717 151.052 274 153.868 274C156.685 274 158.968 271.717 158.968 268.9V254.688L170.869 269.718C172.618 271.927 175.825 272.299 178.033 270.551C180.242 268.803 180.615 265.595 178.866 263.387L158.968 238.256V228.888L170.869 243.919C172.618 246.127 175.825 246.5 178.033 244.751C180.242 243.003 180.615 239.795 178.866 237.587L158.968 212.456V165.993L190.325 197.35L194.026 229.191C194.351 231.989 196.882 233.993 199.68 233.668C202.478 233.343 204.483 230.811 204.157 228.013L201.944 208.969L208.569 215.594L212.269 247.434C212.594 250.232 215.126 252.236 217.924 251.911C220.721 251.586 222.726 249.054 222.401 246.257L220.188 227.213L231.734 238.759C233.726 240.751 236.955 240.751 238.947 238.759C240.939 236.768 240.939 233.539 238.947 231.547L227.636 220.236L246.258 222.4C249.056 222.725 251.587 220.72 251.913 217.923C252.238 215.125 250.233 212.593 247.435 212.268L216.017 208.617L209.392 201.992L228.015 204.156C230.812 204.482 233.344 202.477 233.669 199.679C233.994 196.881 231.99 194.35 229.192 194.025L197.773 190.373L166.368 158.968H210.339L235.469 178.866C237.678 180.614 240.885 180.242 242.634 178.033C244.382 175.825 244.009 172.618 241.801 170.869L226.77 158.968H236.139L261.27 178.866C263.478 180.614 266.686 180.242 268.434 178.033C270.183 175.825 269.81 172.618 267.601 170.869L252.57 158.968H268.9C271.717 158.968 274 156.685 274 153.868C274 151.051 271.717 148.768 268.9 148.768H252.904L267.601 137.131C269.81 135.382 270.183 132.175 268.434 129.966C266.686 127.758 263.478 127.385 261.27 129.134L236.472 148.768H227.103L241.801 137.131C244.009 135.382 244.382 132.175 242.634 129.966C240.885 127.758 237.678 127.385 235.469 129.134L210.672 148.768H166.258L197.35 117.676L229.191 113.975C231.989 113.65 233.993 111.118 233.668 108.321C233.343 105.523 230.811 103.518 228.013 103.843L208.969 106.057L215.593 99.4322L247.434 95.7318C250.232 95.4067 252.237 92.875 251.911 90.0772C251.586 87.2794 249.055 85.2749 246.257 85.6L227.212 87.8133L238.759 76.2665C240.751 74.2748 240.751 71.0457 238.759 69.054C236.767 67.0623 233.538 67.0623 231.547 69.054L220.236 80.3644L222.4 61.7432C222.725 58.9454 220.721 56.4137 217.923 56.0886C215.125 55.7635 212.594 57.7679 212.269 60.5658L208.617 91.9833L201.993 98.6078L204.157 79.9866C204.482 77.1888 202.478 74.6572 199.68 74.332C196.882 74.0069 194.35 76.0114 194.025 78.8092L190.374 110.227L158.968 141.632V97.6608L178.866 72.5299C180.615 70.3216 180.242 67.1141 178.033 65.3656C175.825 63.6172 172.618 63.99 170.869 66.1982L158.968 81.2291V71.8608L178.866 46.7301C180.614 44.5218 180.242 41.3142 178.033 39.5658C175.825 37.8174 172.618 38.1901 170.869 40.3984L158.968 55.4292V39.1C158.968 36.2834 156.685 34 153.868 34Z" fill="url(#paint0_linear_108_1573)"/>
<defs>
<linearGradient id="paint0_linear_108_1573" x1="242.668" y1="53.8" x2="70.468" y2="221.8" gradientUnits="userSpaceOnUse">
<stop stop-color="#D6E9FF"/>
<stop offset="1" stop-color="#2898FF"/>
</linearGradient>
</defs>
</svg>
