<svg width="308" height="308" viewBox="0 0 308 308" fill="none" xmlns="http://www.w3.org/2000/svg">
<path d="M145.85 170.313L117.494 219.032C116.447 220.831 117.75 223.079 119.826 223.079H129.047C129.581 223.079 129.912 223.65 129.656 224.109L104.645 268.981C103.144 271.674 106.596 274.338 108.835 272.267L179.72 206.663C181.522 204.996 180.335 201.995 177.887 201.995H168.616C168.076 201.995 167.746 201.415 168.011 200.956L184.156 173.013C185.196 171.214 183.893 168.974 181.82 168.974H148.182C147.222 168.974 146.334 169.483 145.85 170.313Z" fill="url(#paint0_linear_108_1551)" stroke="url(#paint1_linear_108_1551)" stroke-width="2"/>
<g filter="url(#filter0_bd_108_1551)">
<mask id="path-2-outside-1_108_1551" maskUnits="userSpaceOnUse" x="23" y="34" width="262" height="160" fill="black">
<rect fill="white" x="23" y="34" width="262" height="160"/>
<path fill-rule="evenodd" clip-rule="evenodd" d="M211.191 107.124C211.191 109.607 211.064 112.06 210.816 114.477C218.469 107.817 228.465 103.786 239.402 103.786C263.48 103.786 283 123.329 283 147.436C283 171.543 263.48 191.086 239.402 191.086H69.9181C69.9056 191.086 69.8932 191.086 69.8807 191.086C69.8682 191.086 69.8558 191.086 69.8433 191.086H69.6243V191.085C44.9553 190.947 25 170.883 25 146.152C25 121.512 44.8089 101.505 69.3525 101.221C72.3491 64.7022 102.902 36 140.151 36C179.385 36 211.191 67.8432 211.191 107.124Z"/>
</mask>
<path fill-rule="evenodd" clip-rule="evenodd" d="M211.191 107.124C211.191 109.607 211.064 112.06 210.816 114.477C218.469 107.817 228.465 103.786 239.402 103.786C263.48 103.786 283 123.329 283 147.436C283 171.543 263.48 191.086 239.402 191.086H69.9181C69.9056 191.086 69.8932 191.086 69.8807 191.086C69.8682 191.086 69.8558 191.086 69.8433 191.086H69.6243V191.085C44.9553 190.947 25 170.883 25 146.152C25 121.512 44.8089 101.505 69.3525 101.221C72.3491 64.7022 102.902 36 140.151 36C179.385 36 211.191 67.8432 211.191 107.124Z" fill="url(#paint2_linear_108_1551)" shape-rendering="crispEdges"/>
<path d="M210.816 114.477L208.826 114.273L208.31 119.309L212.129 115.986L210.816 114.477ZM69.6243 191.086H67.6243V193.086H69.6243V191.086ZM69.6243 191.085H71.6243V189.096L69.6355 189.085L69.6243 191.085ZM69.3525 101.221L69.3756 103.221L71.1968 103.2L71.3458 101.385L69.3525 101.221ZM212.805 114.681C213.06 112.196 213.191 109.675 213.191 107.124H209.191C209.191 109.538 209.067 111.923 208.826 114.273L212.805 114.681ZM239.402 101.786C227.964 101.786 217.507 106.004 209.503 112.968L212.129 115.986C219.432 109.631 228.966 105.786 239.402 105.786V101.786ZM285 147.436C285 122.226 264.587 101.786 239.402 101.786V105.786C262.374 105.786 281 124.431 281 147.436H285ZM239.402 193.086C264.587 193.086 285 172.645 285 147.436H281C281 170.441 262.374 189.086 239.402 189.086V193.086ZM239.402 189.086H69.9181V193.086H239.402V189.086ZM69.8807 193.086C69.8877 193.086 69.8945 193.086 69.9006 193.086C69.907 193.086 69.9126 193.086 69.9181 193.086V189.086C69.9112 189.086 69.9043 189.086 69.8982 189.086C69.8918 189.086 69.8862 189.086 69.8807 189.086V193.086ZM69.8433 193.086C69.8488 193.086 69.8545 193.086 69.8608 193.086C69.8669 193.086 69.8738 193.086 69.8807 193.086V189.086C69.8752 189.086 69.8696 189.086 69.8632 189.086C69.8571 189.086 69.8503 189.086 69.8433 189.086V193.086ZM69.8433 189.086H69.6243V193.086H69.8433V189.086ZM71.6243 191.086V191.085H67.6243V191.086H71.6243ZM23 146.152C23 171.981 43.8424 192.941 69.6131 193.085L69.6355 189.085C46.0683 188.953 27 169.784 27 146.152H23ZM69.3294 99.2213C43.6894 99.5174 23 120.418 23 146.152H27C27 122.607 45.9284 103.492 69.3756 103.221L69.3294 99.2213ZM140.151 34C101.85 34 70.4401 63.5115 67.3592 101.058L71.3458 101.385C74.2581 65.8928 103.954 38 140.151 38V34ZM213.191 107.124C213.191 66.7408 180.492 34 140.151 34V38C178.278 38 209.191 68.9455 209.191 107.124H213.191Z" fill="url(#paint3_linear_108_1551)" mask="url(#path-2-outside-1_108_1551)"/>
</g>
<g filter="url(#filter1_bd_108_1551)">
<path fill-rule="evenodd" clip-rule="evenodd" d="M211.191 107.124C211.191 109.607 211.064 112.06 210.816 114.477C218.469 107.818 228.465 103.786 239.402 103.786C263.48 103.786 283 123.329 283 147.436C283 171.543 263.48 191.086 239.402 191.086C239.377 191.086 239.352 191.086 239.328 191.086H70.0206C69.974 191.086 69.9274 191.086 69.8807 191.086C69.8341 191.086 69.7874 191.086 69.7408 191.086H69.6243V191.085C44.9553 190.947 25 170.883 25 146.152C25 121.513 44.8089 101.505 69.3524 101.222C72.3488 64.7024 102.902 36 140.151 36C179.385 36 211.191 67.8432 211.191 107.124Z" fill="url(#paint4_linear_108_1551)" shape-rendering="crispEdges"/>
</g>
<defs>
<filter id="filter0_bd_108_1551" x="8" y="23" width="292" height="189.086" filterUnits="userSpaceOnUse" color-interpolation-filters="sRGB">
<feFlood flood-opacity="0" result="BackgroundImageFix"/>
<feGaussianBlur in="BackgroundImage" stdDeviation="5"/>
<feComposite in2="SourceAlpha" operator="in" result="effect1_backgroundBlur_108_1551"/>
<feColorMatrix in="SourceAlpha" type="matrix" values="0 0 0 0 0 0 0 0 0 0 0 0 0 0 0 0 0 0 127 0" result="hardAlpha"/>
<feOffset dy="4"/>
<feGaussianBlur stdDeviation="7.5"/>
<feComposite in2="hardAlpha" operator="out"/>
<feColorMatrix type="matrix" values="0 0 0 0 0 0 0 0 0 0 0 0 0 0 0 0 0 0 0.1 0"/>
<feBlend mode="normal" in2="effect1_backgroundBlur_108_1551" result="effect2_dropShadow_108_1551"/>
<feBlend mode="normal" in="SourceGraphic" in2="effect2_dropShadow_108_1551" result="shape"/>
</filter>
<filter id="filter1_bd_108_1551" x="10" y="25" width="288" height="185.086" filterUnits="userSpaceOnUse" color-interpolation-filters="sRGB">
<feFlood flood-opacity="0" result="BackgroundImageFix"/>
<feGaussianBlur in="BackgroundImage" stdDeviation="5"/>
<feComposite in2="SourceAlpha" operator="in" result="effect1_backgroundBlur_108_1551"/>
<feColorMatrix in="SourceAlpha" type="matrix" values="0 0 0 0 0 0 0 0 0 0 0 0 0 0 0 0 0 0 127 0" result="hardAlpha"/>
<feOffset dy="4"/>
<feGaussianBlur stdDeviation="7.5"/>
<feComposite in2="hardAlpha" operator="out"/>
<feColorMatrix type="matrix" values="0 0 0 0 0 0 0 0 0 0 0 0 0 0 0 0 0 0 0.1 0"/>
<feBlend mode="normal" in2="effect1_backgroundBlur_108_1551" result="effect2_dropShadow_108_1551"/>
<feBlend mode="normal" in="SourceGraphic" in2="effect2_dropShadow_108_1551" result="shape"/>
</filter>
<linearGradient id="paint0_linear_108_1551" x1="164.38" y1="177.745" x2="105.969" y2="263.39" gradientUnits="userSpaceOnUse">
<stop offset="0.182844" stop-color="#FFE600"/>
<stop offset="0.980542" stop-color="#F09000"/>
</linearGradient>
<linearGradient id="paint1_linear_108_1551" x1="124.09" y1="140.763" x2="165.94" y2="314.79" gradientUnits="userSpaceOnUse">
<stop offset="0.14688" stop-color="#FFE600"/>
<stop offset="0.938214" stop-color="#F09000"/>
</linearGradient>
<linearGradient id="paint2_linear_108_1551" x1="106.859" y1="51.9738" x2="188.833" y2="185.346" gradientUnits="userSpaceOnUse">
<stop stop-color="#508ABF"/>
<stop offset="1" stop-color="#2073A2" stop-opacity="0.53"/>
</linearGradient>
<linearGradient id="paint3_linear_108_1551" x1="190.236" y1="242.629" x2="109.778" y2="15.9638" gradientUnits="userSpaceOnUse">
<stop stop-color="#4195C6"/>
<stop offset="1" stop-color="#5E8398" stop-opacity="0.56"/>
<stop offset="1" stop-color="#AFE2FF" stop-opacity="0.5"/>
</linearGradient>
<linearGradient id="paint4_linear_108_1551" x1="188.692" y1="245.721" x2="188.692" y2="155.031" gradientUnits="userSpaceOnUse">
<stop stop-color="#FFE600"/>
<stop offset="1" stop-color="#FFD600" stop-opacity="0"/>
</linearGradient>
</defs>
</svg>
